<svg xmlns="http://www.w3.org/2000/svg" viewBox="0 0 256 256" focusable="false" color="var(--token-9e9907cd-c550-4f5e-a77f-96995424addd, rgb(255, 255, 255))" style="user-select: none; width: 100%; height: 100%; display: inline-block; fill: var(--token-9e9907cd-c550-4f5e-a77f-96995424addd, rgb(255, 255, 255)); color: var(--token-9e9907cd-c550-4f5e-a77f-96995424addd, rgb(255, 255, 255)); flex-shrink: 0;"><g color="var(--token-9e9907cd-c550-4f5e-a77f-96995424addd, rgb(255, 255, 255))" weight="thin"><path d="M240,212H220V126.34l9.17,9.17a4,4,0,1,0,5.66-5.66L136.49,31.51a12,12,0,0,0-17,0L21.17,129.85a4,4,0,1,0,5.66,5.66L36,126.34V212H16a4,4,0,0,0,0,8H240a4,4,0,0,0,0-8ZM44,118.34l81.17-81.17a4,4,0,0,1,5.66,0L212,118.34V212H156V152a4,4,0,0,0-4-4H104a4,4,0,0,0-4,4v60H44ZM148,212H108V156h40Z"></path></g></svg>