<svg xmlns="http://www.w3.org/2000/svg" viewBox="0 0 256 256" focusable="false" color="var(--token-2259f388-e724-4a8f-bb15-b8c6060902af, rgb(255, 242, 0))" style="user-select: none; width: 100%; height: 100%; display: inline-block; fill: var(--token-2259f388-e724-4a8f-bb15-b8c6060902af, rgb(255, 242, 0)); color: var(--token-2259f388-e724-4a8f-bb15-b8c6060902af, rgb(255, 242, 0)); flex-shrink: 0;"><g color="var(--token-2259f388-e724-4a8f-bb15-b8c6060902af, rgb(255, 242, 0))" weight="regular"><path d="M223.68,66.15,135.68,18h0a15.88,15.88,0,0,0-15.36,0l-88,48.17a16,16,0,0,0-8.32,14v95.64a16,16,0,0,0,8.32,14l88,48.17a15.88,15.88,0,0,0,15.36,0l88-48.17a16,16,0,0,0,8.32-14V80.18A16,16,0,0,0,223.68,66.15ZM216,175.82,128,224,40,175.82V80.18L128,32h0l88,48.17Z"></path></g></svg>